{
	"asset":{
		"generator":"Khronos glTF Blender I/O v3.6.27",
		"version":"2.0"
	},
	"scene":0,
	"scenes":[
		{
			"name":"Scene",
			"nodes":[
				0
			]
		}
	],
	"nodes":[
		{
			"mesh":0,
			"name":"Cube",
			"rotation":[
				0,
				0,
				-1,
				0
			],
			"scale":[
				5.98098611831665,
				5.98516321182251,
				3.996534585952759
			]
		}
	],
	"materials":[
		{
			"doubleSided":true,
			"name":"body",
			"pbrMetallicRoughness":{
				"baseColorFactor":[
					0.5196260809898376,
					0.5196260809898376,
					0.5196260809898376,
					1
				],
				"metallicFactor":0.7772727012634277,
				"roughnessFactor":0.5
			}
		},
		{
			"doubleSided":true,
			"name":"screen",
			"pbrMetallicRoughness":{
				"metallicFactor":0,
				"roughnessFactor":0.5
			}
		},
		{
			"doubleSided":true,
			"name":"bottom",
			"pbrMetallicRoughness":{
				"baseColorFactor":[
					0.06987226009368896,
					0.06987226009368896,
					0.06987226009368896,
					1
				],
				"metallicFactor":0,
				"roughnessFactor":0.5
			}
		},
		{
			"doubleSided":true,
			"name":"buttons",
			"pbrMetallicRoughness":{
				"baseColorFactor":[
					0.800000011920929,
					0.800000011920929,
					0.800000011920929,
					1
				],
				"metallicFactor":0,
				"roughnessFactor":0.5
			}
		}
	],
	"meshes":[
		{
			"name":"Cube",
			"primitives":[
				{
					"attributes":{
						"POSITION":0,
						"NORMAL":1,
						"TEXCOORD_0":2
					},
					"indices":3,
					"material":0
				},
				{
					"attributes":{
						"POSITION":4,
						"NORMAL":5,
						"TEXCOORD_0":6
					},
					"indices":7,
					"material":1
				},
				{
					"attributes":{
						"POSITION":8,
						"NORMAL":9,
						"TEXCOORD_0":10
					},
					"indices":11,
					"material":2
				},
				{
					"attributes":{
						"POSITION":12,
						"NORMAL":13,
						"TEXCOORD_0":14
					},
					"indices":15,
					"material":3
				}
			]
		}
	],
	"accessors":[
		{
			"bufferView":0,
			"componentType":5126,
			"count":114,
			"max":[
				1,
				0.7255039811134338,
				1
			],
			"min":[
				-1,
				-1,
				-2.490882396697998
			],
			"type":"VEC3"
		},
		{
			"bufferView":1,
			"componentType":5126,
			"count":114,
			"type":"VEC3"
		},
		{
			"bufferView":2,
			"componentType":5126,
			"count":114,
			"type":"VEC2"
		},
		{
			"bufferView":3,
			"componentType":5123,
			"count":234,
			"type":"SCALAR"
		},
		{
			"bufferView":4,
			"componentType":5126,
			"count":32,
			"max":[
				0.7132517695426941,
				0.4387419819831848,
				0.9131151437759399
			],
			"min":[
				-0.7132517695426941,
				-0.7132517695426941,
				0.7844638824462891
			],
			"type":"VEC3"
		},
		{
			"bufferView":5,
			"componentType":5126,
			"count":32,
			"type":"VEC3"
		},
		{
			"bufferView":6,
			"componentType":5126,
			"count":32,
			"type":"VEC2"
		},
		{
			"bufferView":7,
			"componentType":5123,
			"count":48,
			"type":"SCALAR"
		},
		{
			"bufferView":8,
			"componentType":5126,
			"count":122,
			"max":[
				0.8891488313674927,
				1,
				1
			],
			"min":[
				-0.8891488313674927,
				0.7254902124404907,
				-2.0003116130828857
			],
			"type":"VEC3"
		},
		{
			"bufferView":9,
			"componentType":5126,
			"count":122,
			"type":"VEC3"
		},
		{
			"bufferView":10,
			"componentType":5126,
			"count":122,
			"type":"VEC2"
		},
		{
			"bufferView":11,
			"componentType":5123,
			"count":237,
			"type":"SCALAR"
		},
		{
			"bufferView":12,
			"componentType":5126,
			"count":120,
			"max":[
				0.2513342797756195,
				0.8934899568557739,
				0.8981778621673584
			],
			"min":[
				-0.6387825012207031,
				0.8416107892990112,
				0.8765103816986084
			],
			"type":"VEC3"
		},
		{
			"bufferView":13,
			"componentType":5126,
			"count":120,
			"type":"VEC3"
		},
		{
			"bufferView":14,
			"componentType":5126,
			"count":120,
			"type":"VEC2"
		},
		{
			"bufferView":15,
			"componentType":5123,
			"count":180,
			"type":"SCALAR"
		}
	],
	"bufferViews":[
		{
			"buffer":0,
			"byteLength":1368,
			"byteOffset":0,
			"target":34962
		},
		{
			"buffer":0,
			"byteLength":1368,
			"byteOffset":1368,
			"target":34962
		},
		{
			"buffer":0,
			"byteLength":912,
			"byteOffset":2736,
			"target":34962
		},
		{
			"buffer":0,
			"byteLength":468,
			"byteOffset":3648,
			"target":34963
		},
		{
			"buffer":0,
			"byteLength":384,
			"byteOffset":4116,
			"target":34962
		},
		{
			"buffer":0,
			"byteLength":384,
			"byteOffset":4500,
			"target":34962
		},
		{
			"buffer":0,
			"byteLength":256,
			"byteOffset":4884,
			"target":34962
		},
		{
			"buffer":0,
			"byteLength":96,
			"byteOffset":5140,
			"target":34963
		},
		{
			"buffer":0,
			"byteLength":1464,
			"byteOffset":5236,
			"target":34962
		},
		{
			"buffer":0,
			"byteLength":1464,
			"byteOffset":6700,
			"target":34962
		},
		{
			"buffer":0,
			"byteLength":976,
			"byteOffset":8164,
			"target":34962
		},
		{
			"buffer":0,
			"byteLength":474,
			"byteOffset":9140,
			"target":34963
		},
		{
			"buffer":0,
			"byteLength":1440,
			"byteOffset":9616,
			"target":34962
		},
		{
			"buffer":0,
			"byteLength":1440,
			"byteOffset":11056,
			"target":34962
		},
		{
			"buffer":0,
			"byteLength":960,
			"byteOffset":12496,
			"target":34962
		},
		{
			"buffer":0,
			"byteLength":360,
			"byteOffset":13456,
			"target":34963
		}
	],
	"buffers":[
		{
			"byteLength":13816,
			"uri":"data:application/octet-stream;base64,"
		}
	]
}
