{
	"asset":{
		"generator":"Khronos glTF Blender I/O v3.6.27",
		"version":"2.0"
	},
	"scene":0,
	"scenes":[
		{
			"name":"Scene",
			"nodes":[
				0,
				1,
				2
			]
		}
	],
	"nodes":[
		{
			"mesh":0,
			"name":"Cube",
			"scale":[
				1.4349092245101929,
				0.4453348219394684,
				1.721447467803955
			]
		},
		{
			"name":"Empty",
			"translation":[
				-0.9890077114105225,
				-1.6123137474060059,
				-0.6300447583198547
			]
		},
		{
			"name":"Empty.001",
			"rotation":[
				0.7071068286895752,
				0,
				0,
				0.7071068286895752
			],
			"translation":[
				-0.015852974727749825,
				0.2492741048336029,
				-2.1730737686157227
			]
		}
	],
	"materials":[
		{
			"doubleSided":true,
			"name":"body",
			"pbrMetallicRoughness":{
				"baseColorFactor":[
					0.800000011920929,
					0.800000011920929,
					0.800000011920929,
					1
				],
				"metallicFactor":0,
				"roughnessFactor":0.5
			}
		},
		{
			"doubleSided":true,
			"name":"power reset",
			"pbrMetallicRoughness":{
				"baseColorFactor":[
					0.08650045096874237,
					0.04373503103852272,
					0.33245155215263367,
					1
				],
				"metallicFactor":0,
				"roughnessFactor":0.5
			}
		},
		{
			"doubleSided":true,
			"name":"on",
			"pbrMetallicRoughness":{
				"baseColorFactor":[
					0.037812549620866776,
					0.8000000715255737,
					0.033757977187633514,
					1
				],
				"metallicFactor":0,
				"roughnessFactor":0.5
			}
		},
		{
			"doubleSided":true,
			"name":"off",
			"pbrMetallicRoughness":{
				"baseColorFactor":[
					0.8000000715255737,
					0.09260783344507217,
					0.06740885972976685,
					1
				],
				"metallicFactor":0,
				"roughnessFactor":0.5
			}
		},
		{
			"doubleSided":true,
			"name":"eject",
			"pbrMetallicRoughness":{
				"baseColorFactor":[
					0.10645317286252975,
					0.10192561894655228,
					0.13431155681610107,
					1
				],
				"metallicFactor":0,
				"roughnessFactor":0.5
			}
		}
	],
	"meshes":[
		{
			"name":"Cube",
			"primitives":[
				{
					"attributes":{
						"POSITION":0,
						"NORMAL":1,
						"TEXCOORD_0":2
					},
					"indices":3,
					"material":0
				},
				{
					"attributes":{
						"POSITION":4,
						"NORMAL":5,
						"TEXCOORD_0":6
					},
					"indices":7,
					"material":1
				},
				{
					"attributes":{
						"POSITION":8,
						"NORMAL":9,
						"TEXCOORD_0":10
					},
					"indices":11,
					"material":2
				},
				{
					"attributes":{
						"POSITION":12,
						"NORMAL":13,
						"TEXCOORD_0":14
					},
					"indices":15,
					"material":3
				},
				{
					"attributes":{
						"POSITION":16,
						"NORMAL":17,
						"TEXCOORD_0":18
					},
					"indices":19,
					"material":4
				}
			]
		}
	],
	"accessors":[
		{
			"bufferView":0,
			"componentType":5126,
			"count":6207,
			"max":[
				1.0241700410842896,
				1.0383449792861938,
				1.0295988321304321
			],
			"min":[
				-1.0241700410842896,
				-0.9999998807907104,
				-1
			],
			"type":"VEC3"
		},
		{
			"bufferView":1,
			"componentType":5126,
			"count":6207,
			"type":"VEC3"
		},
		{
			"bufferView":2,
			"componentType":5126,
			"count":6207,
			"type":"VEC2"
		},
		{
			"bufferView":3,
			"componentType":5123,
			"count":18651,
			"type":"SCALAR"
		},
		{
			"bufferView":4,
			"componentType":5126,
			"count":531,
			"max":[
				0.7219254970550537,
				0.9945951700210571,
				0.47254329919815063
			],
			"min":[
				-0.7219254970550537,
				0.7810564637184143,
				0.28014326095581055
			],
			"type":"VEC3"
		},
		{
			"bufferView":5,
			"componentType":5126,
			"count":531,
			"type":"VEC3"
		},
		{
			"bufferView":6,
			"componentType":5126,
			"count":531,
			"type":"VEC2"
		},
		{
			"bufferView":7,
			"componentType":5123,
			"count":1467,
			"type":"SCALAR"
		},
		{
			"bufferView":8,
			"componentType":5126,
			"count":4,
			"max":[
				-0.7345726490020752,
				0.7870550751686096,
				0.3448427617549896
			],
			"min":[
				-0.7499299645423889,
				0.7870550751686096,
				0.33155471086502075
			],
			"type":"VEC3"
		},
		{
			"bufferView":9,
			"componentType":5126,
			"count":4,
			"type":"VEC3"
		},
		{
			"bufferView":10,
			"componentType":5126,
			"count":4,
			"type":"VEC2"
		},
		{
			"bufferView":11,
			"componentType":5123,
			"count":6,
			"type":"SCALAR"
		},
		{
			"bufferView":12,
			"componentType":5126,
			"count":4,
			"max":[
				-0.7345726490020752,
				0.7870550751686096,
				0.3755175769329071
			],
			"min":[
				-0.7499299645423889,
				0.7870550751686096,
				0.36187392473220825
			],
			"type":"VEC3"
		},
		{
			"bufferView":13,
			"componentType":5126,
			"count":4,
			"type":"VEC3"
		},
		{
			"bufferView":14,
			"componentType":5126,
			"count":4,
			"type":"VEC2"
		},
		{
			"bufferView":15,
			"componentType":5123,
			"count":6,
			"type":"SCALAR"
		},
		{
			"bufferView":16,
			"componentType":5126,
			"count":52,
			"max":[
				0.1845172941684723,
				0.8010023832321167,
				0.7714444398880005
			],
			"min":[
				-0.1845172941684723,
				0.7810564637184143,
				0.2924765944480896
			],
			"type":"VEC3"
		},
		{
			"bufferView":17,
			"componentType":5126,
			"count":52,
			"type":"VEC3"
		},
		{
			"bufferView":18,
			"componentType":5126,
			"count":52,
			"type":"VEC2"
		},
		{
			"bufferView":19,
			"componentType":5123,
			"count":144,
			"type":"SCALAR"
		}
	],
	"bufferViews":[
		{
			"buffer":0,
			"byteLength":74484,
			"byteOffset":0,
			"target":34962
		},
		{
			"buffer":0,
			"byteLength":74484,
			"byteOffset":74484,
			"target":34962
		},
		{
			"buffer":0,
			"byteLength":49656,
			"byteOffset":148968,
			"target":34962
		},
		{
			"buffer":0,
			"byteLength":37302,
			"byteOffset":198624,
			"target":34963
		},
		{
			"buffer":0,
			"byteLength":6372,
			"byteOffset":235928,
			"target":34962
		},
		{
			"buffer":0,
			"byteLength":6372,
			"byteOffset":242300,
			"target":34962
		},
		{
			"buffer":0,
			"byteLength":4248,
			"byteOffset":248672,
			"target":34962
		},
		{
			"buffer":0,
			"byteLength":2934,
			"byteOffset":252920,
			"target":34963
		},
		{
			"buffer":0,
			"byteLength":48,
			"byteOffset":255856,
			"target":34962
		},
		{
			"buffer":0,
			"byteLength":48,
			"byteOffset":255904,
			"target":34962
		},
		{
			"buffer":0,
			"byteLength":32,
			"byteOffset":255952,
			"target":34962
		},
		{
			"buffer":0,
			"byteLength":12,
			"byteOffset":255984,
			"target":34963
		},
		{
			"buffer":0,
			"byteLength":48,
			"byteOffset":255996,
			"target":34962
		},
		{
			"buffer":0,
			"byteLength":48,
			"byteOffset":256044,
			"target":34962
		},
		{
			"buffer":0,
			"byteLength":32,
			"byteOffset":256092,
			"target":34962
		},
		{
			"buffer":0,
			"byteLength":12,
			"byteOffset":256124,
			"target":34963
		},
		{
			"buffer":0,
			"byteLength":624,
			"byteOffset":256136,
			"target":34962
		},
		{
			"buffer":0,
			"byteLength":624,
			"byteOffset":256760,
			"target":34962
		},
		{
			"buffer":0,
			"byteLength":416,
			"byteOffset":257384,
			"target":34962
		},
		{
			"buffer":0,
			"byteLength":288,
			"byteOffset":257800,
			"target":34963
		}
	],
	"buffers":[
		{
			"byteLength":258088,
			"uri":"data:application/octet-stream;base64,"
		}
	]
}
